<svg xmlns="http://www.w3.org/2000/svg" width="96" height="96"><path d="M46 1a1 1 0 0 1 1 1 1 1 0 1 0 2 0 1 1 0 1 1 2 0v4c0 .587-.169 1.134-.46 1.597l18.87 8.491a1 1 0 0 1 .484 1.36L68 21.235v8.935a3.001 3.001 0 0 1 .032 5.647l.936 24.342A3.001 3.001 0 0 1 70.83 64H72a1 1 0 0 1 1 1v3h1a1 1 0 0 1 .894 1.447L73 73.237V84h1a1 1 0 0 1 1 1v9a1 1 0 1 1-2 0v-8H23v8a1 1 0 1 1-2 0v-9a1 1 0 0 1 1-1h1V73.236l-1.894-3.789A1 1 0 0 1 22 68h1v-3a1 1 0 0 1 1-1h1.17a3.001 3.001 0 0 1 1.86-3.84l.938-24.342A3.001 3.001 0 0 1 28 30.17v-8.935l-1.894-3.789a1 1 0 0 1 .484-1.359l18.87-8.491A2.986 2.986 0 0 1 45 6V2a1 1 0 0 1 1-1Zm1 3.83V6a1 1 0 1 0 2 0V4.83a2.995 2.995 0 0 1-2 0ZM47.215 9l-15.556 7h32.682L48.785 9h-1.57Zm20.167 9H28.618l1 2h36.764l1-2ZM66 22H30v8h36v-8Zm-7.83 10h-4.34a3.001 3.001 0 0 1-1.797 3.818l.935 24.342A3.001 3.001 0 0 1 54.83 64h2.342a3.001 3.001 0 0 1 1.86-3.84l.937-24.342A3.001 3.001 0 0 1 58.17 32ZM61 34a1 1 0 1 1 0-2h6a1 1 0 1 1 0 2h-6Zm.962 2-.923 24h5.922l-.923-24h-4.076ZM60 62a1 1 0 1 0 0 2h8a1 1 0 1 0 0-2h-8Zm8 4H25v2h46v-2h-3Zm4.382 4H23.618l1 2h46.764l1-2ZM71 74H25v10h46V74ZM28 64h8a1 1 0 1 0 0-2h-8a1 1 0 1 0 0 2Zm1.04-4h5.92l-.922-24h-4.076l-.923 24ZM29 34h6a1 1 0 1 0 0-2h-6a1 1 0 1 0 0 2Zm8.83-2a3.001 3.001 0 0 1-1.797 3.818l.935 24.342A3.001 3.001 0 0 1 38.83 64h2.342a3.001 3.001 0 0 1 1.86-3.84l.937-24.342A3.001 3.001 0 0 1 42.17 32h-4.342ZM45 32a1 1 0 1 0 0 2h6a1 1 0 1 0 0-2h-6Zm.962 4-.923 24h5.922l-.923-24h-4.076ZM44 62a1 1 0 1 0 0 2h8a1 1 0 1 0 0-2h-8ZM31 91a1 1 0 0 0-1 1v2a1 1 0 1 1-2 0v-2a3 3 0 0 1 6 0v2a1 1 0 1 1-2 0v-2a1 1 0 0 0-1-1Zm7-2a1 1 0 0 1 1 1v4a1 1 0 1 1-2 0v-4a1 1 0 0 1 1-1Zm5 0a1 1 0 0 1 1 1v4a1 1 0 1 1-2 0v-4a1 1 0 0 1 1-1Zm5 0a1 1 0 0 1 1 1v4a1 1 0 1 1-2 0v-4a1 1 0 0 1 1-1Zm5 0a1 1 0 0 1 1 1v4a1 1 0 1 1-2 0v-4a1 1 0 0 1 1-1Zm5 0a1 1 0 0 1 1 1v4a1 1 0 1 1-2 0v-4a1 1 0 0 1 1-1Zm7 2a1 1 0 0 0-1 1v2a1 1 0 1 1-2 0v-2a3 3 0 0 1 6 0v2a1 1 0 1 1-2 0v-2a1 1 0 0 0-1-1Z" fill="#141414" fill-rule="evenodd"/><path d="M40 76a1 1 0 1 0 0 2h16a1 1 0 1 0 0-2H40Zm5 4a1 1 0 1 0 0 2h6a1 1 0 1 0 0-2h-6ZM38 25a1 1 0 1 0 0 2 1 1 0 0 0 0-2Zm-3 1a3 3 0 1 1 6 0 3 3 0 0 1-6 0Zm13-1a1 1 0 1 0 0 2 1 1 0 0 0 0-2Zm-3 1a3 3 0 1 1 6 0 3 3 0 0 1-6 0Zm12 0a1 1 0 1 1 2 0 1 1 0 0 1-2 0Zm1-3a3 3 0 1 0 0 6 3 3 0 0 0 0-6Z" fill="#7633FF" fill-rule="evenodd"/></svg>