<svg xmlns="http://www.w3.org/2000/svg" width="48" height="48"><path d="M42.974 25a19.28 19.28 0 0 0 0-2 18.895 18.895 0 0 0-4.282-11.049A18.963 18.963 0 0 0 23 5.026 18.963 18.963 0 0 0 9.308 11.95 18.895 18.895 0 0 0 5 24a18.895 18.895 0 0 0 4.308 12.049A18.963 18.963 0 0 0 25 42.974a18.963 18.963 0 0 0 13.692-6.925c.422-.515.818-1.052 1.185-1.61A18.895 18.895 0 0 0 42.974 25Zm-4.749 8.312A16.905 16.905 0 0 0 40.971 25h-5.987a27.904 27.904 0 0 1-.96 6.471c1.136.365 2.192.791 3.151 1.27.361.181.712.371 1.05.57ZM32.1 30.93c.497-1.808.809-3.81.883-5.93H25v5.013c2.522.067 4.922.388 7.099.917ZM25 32.014c2.32.065 4.508.356 6.478.824-.368.973-.795 1.87-1.269 2.676-1.464 2.488-3.299 3.993-5.209 4.384v-7.884Zm-2-2V25h-7.982c.074 2.12.386 4.122.883 5.93 2.177-.53 4.577-.85 7.099-.917Zm-6.478 2.824c1.97-.468 4.158-.759 6.478-.824v7.884c-1.91-.39-3.745-1.896-5.21-4.384-.473-.806-.9-1.703-1.268-2.676Zm-2.546-1.367a27.904 27.904 0 0 1-.96-6.471H7.03a16.905 16.905 0 0 0 2.746 8.312c.338-.2.689-.39 1.05-.57.96-.48 2.015-.906 3.151-1.271Zm-3 3.455c.237-.134.485-.266.743-.395.864-.432 1.825-.82 2.868-1.156.421 1.14.918 2.197 1.48 3.153.913 1.553 2.028 2.877 3.3 3.833a17.01 17.01 0 0 1-8.391-5.435Zm17.656 5.435c1.273-.956 2.387-2.28 3.301-3.833a19.651 19.651 0 0 0 1.48-3.153c1.043.335 2.004.724 2.868 1.156.258.129.506.26.743.395a17.01 17.01 0 0 1-8.392 5.435ZM7.03 23h5.988c.075-2.291.41-4.477.959-6.471a22.339 22.339 0 0 1-3.151-1.27c-.361-.181-.712-.371-1.05-.57A16.905 16.905 0 0 0 7.029 23Zm3.947-9.926c.237.134.485.266.743.396.864.431 1.825.82 2.868 1.155.421-1.14.918-2.197 1.48-3.153.913-1.553 2.028-2.877 3.3-3.833a17.01 17.01 0 0 0-8.391 5.435ZM23 8.102c-1.91.39-3.745 1.895-5.21 4.384-.473.806-.9 1.703-1.268 2.676 1.97.468 4.158.759 6.478.824V8.102Zm0 9.885c-2.522-.067-4.922-.388-7.099-.917a25.876 25.876 0 0 0-.883 5.93H23v-5.013ZM25 23v-5.013c2.522-.067 4.922-.388 7.099-.917.497 1.808.809 3.81.883 5.93H25Zm9.983 0h5.988a16.905 16.905 0 0 0-2.746-8.312c-.338.2-.689.39-1.05.57-.96.48-2.015.906-3.151 1.271.55 1.994.884 4.18.96 6.471Zm-1.57-8.375a20.337 20.337 0 0 0 2.868-1.155c.258-.13.506-.262.743-.396a17.01 17.01 0 0 0-8.392-5.435c1.273.956 2.387 2.28 3.301 3.833a19.651 19.651 0 0 1 1.48 3.153ZM25 8.102v7.884c2.32-.065 4.508-.356 6.478-.824a17.537 17.537 0 0 0-1.269-2.676C28.745 9.997 26.91 8.493 25 8.102Z" fill-rule="evenodd" fill="#7633ff"/></svg>