<svg width="48" height="48" viewBox="0 0 48 48" fill="none" xmlns="http://www.w3.org/2000/svg">
<path d="M13.1094 8.42969C14.3082 9.31578 15.2279 11.5681 15.2279 11.5681C15.2279 11.5681 16.2634 12.2876 16.5873 13.2047C16.9112 14.1219 16.6054 15.369 16.6054 15.369C16.6054 15.369 17.5226 18.0627 17.0908 18.8184C16.659 19.5741 14.8238 20.0603 14.8238 20.0603C14.8238 20.0603 14.0681 21.4637 12.5023 21.734C11.4772 21.8411 10.4512 22.5424 10.4512 24.0002C10.4512 25.458 11.909 27.833 11.909 27.833C11.909 27.833 13.4204 28.5723 13.6363 29.1121C13.8522 29.6518 13.9256 30.9093 13.9256 30.9093C13.9256 30.9093 15.3635 33.4466 14.5534 34.9036C14.2952 35.3682 13.0956 35.7137 13.0956 35.7137L11.4141 38.2355" stroke="#141414" stroke-width="2" stroke-miterlimit="10"/>
<path d="M38.9941 12.3295C37.1606 13.2087 33.9539 13.942 33.9539 13.942C33.9539 13.942 31.6109 16.5501 30.0719 16.3342C28.5329 16.1183 26.968 14.391 26.968 14.391C26.968 14.391 27.0759 11.2077 26.5906 11.0453C26.1052 10.883 24.8097 11.7466 23.9996 11.0989C23.1896 10.4511 23.6568 8.62541 23.6568 8.62541C23.6568 8.62541 21.8941 8.07614 21.6782 7.48196C21.4623 6.88778 22.3199 5.56555 22.4831 5.05859" stroke="#141414" stroke-width="2" stroke-miterlimit="10"/>
<path d="M37.9261 25.2412C38.3579 26.2672 37.1152 28.8857 36.0909 29.397C34.7341 30.0741 33.8092 30.9239 33.4309 31.5181C33.0526 32.1123 32.556 34.5616 31.315 35.0478C30.0739 35.5332 27.1307 38.3037 25.5657 37.8719C24.0008 37.4401 24 33.7152 25.0795 32.0415C25.7238 31.0422 24.9716 28.8564 24.9172 28.1016C24.8627 27.3467 22.5966 25.9425 22.5957 25.1868C22.5957 23.9993 25.1866 20.8686 25.1866 20.8686C25.1866 20.8686 27.3094 20.1673 27.9572 20.3288C28.6049 20.4903 29.8287 21.246 29.8287 21.246C29.8287 21.246 32.2572 21.4619 33.1752 21.9473L34.4172 23.0804C34.4172 23.0821 37.4943 24.2152 37.9261 25.2412Z" stroke="#7633FF" stroke-width="2" stroke-miterlimit="10"/>
<path d="M24 43C34.4934 43 43 34.4934 43 24C43 13.5066 34.4934 5 24 5C13.5066 5 5 13.5066 5 24C5 34.4934 13.5066 43 24 43Z" stroke="#141414" stroke-width="2" stroke-miterlimit="10" stroke-linecap="square"/>
</svg>
