<svg xmlns="http://www.w3.org/2000/svg" width="48" height="48"><path d="M15.22 8.052a1 1 0 0 0-.851.282L3.765 18.938a1 1 0 0 0 0 1.414l1.463 1.463a3.988 3.988 0 0 1 6.237 3.316v.032c2.377-.038 4.388 1.904 4.44 4.264 2.35.053 4.288 2.051 4.242 4.42h.073a3.96 3.96 0 0 1 3.255 6.215l.298.298c1.5 1.499 3.924 1.274 5.155-.324L27.01 38.12a1 1 0 0 1 1.415-1.414l2.474 2.475.938.937a2.079 2.079 0 0 0 3.542-1.63l-.055-.719-9.638-9.638a1 1 0 1 1 1.414-1.414l9.741 9.741c1.727.54 3.369-1.102 2.829-2.828l-9.742-9.741a1 1 0 0 1 1.415-1.415l9.754 9.755.385.154c1.617.647 3.22-.964 2.564-2.578a1.976 1.976 0 0 0-.433-.654l-1.696-1.695L28.482 14.02l-5.625 5.625a4 4 0 1 1-5.657-5.657L21.39 9.8c.258-.259.528-.5.807-.725l-6.976-1.022Zm9.612-.495a.995.995 0 0 0-.447-.183l-8.874-1.3a3 3 0 0 0-2.556.846L2.35 17.524a3 3 0 0 0 0 4.242l1.414 1.414-.772.772A4 4 0 0 0 1.9 25.996c-.518 2.587 1.55 4.89 4.076 4.783-.092 2.351 1.899 4.374 4.24 4.335-.038 2.34 1.982 4.33 4.331 4.24-.123 2.525 2.177 4.6 4.76 4.083a3.981 3.981 0 0 0 2.092-1.149l.722-.752.238.238c2.307 2.307 6.001 2.032 7.991-.315l.072.072a4.08 4.08 0 0 0 6.962-2.966c2.308.08 4.285-1.787 4.391-4.06 2.856.343 5.303-2.553 4.124-5.454a3.975 3.975 0 0 0-.872-1.315l-.988-.988 2.153-2.153a3 3 0 0 0 0-4.243l-9.9-9.9a.994.994 0 0 0-.074-.066l-1.527-1.25a9.925 9.925 0 0 0-9.86-1.579Zm17.792 17.777 2.154-2.154a1 1 0 0 0 0-1.414l-9.865-9.864-1.489-1.218a7.924 7.924 0 0 0-10.62.53l-4.19 4.188a2 2 0 0 0 2.829 2.829l5.682-5.682a1.92 1.92 0 0 1 2.715 0l12.784 12.785ZM15.211 37.19c-1.763.705-3.534-1.066-2.828-2.829l2.868-2.868c1.691-.404 3.232 1.137 2.828 2.828l-2.868 2.869Zm-1.374-7.111c.404-1.693-1.143-3.25-2.852-2.853l-2.844 2.89c-.709 1.763 1.063 3.537 2.827 2.831l2.869-2.868Zm-7.033-1.456 2.656-2.699.005-.806a1.987 1.987 0 0 0-3.393-1.417l-.185.185-1.48 1.48a2 2 0 0 0 1.807 3.375l.59-.118Zm9.903 9.899-.124.621a1.981 1.981 0 0 0 3.372 1.76l1.429-1.49.015-.014.206-.207a1.96 1.96 0 0 0-1.385-3.345h-.838l-2.675 2.675Z" fill-rule="evenodd" fill="#7633ff"/></svg>