<svg width="24" height="24" viewBox="0 0 24 24" fill="none" xmlns="http://www.w3.org/2000/svg">
<path fill-rule="evenodd" clip-rule="evenodd" d="M13.809 2.08678C14.2113 2.26631 14.4488 2.68798 14.3937 3.12507L13.634 9.15067H21C21.3915 9.15067 21.747 9.37914 21.9097 9.73527C22.0723 10.0914 22.0121 10.5097 21.7557 10.8056L12.3542 21.6549C12.0657 21.9878 11.5933 22.0927 11.191 21.9132C10.7887 21.7337 10.5512 21.312 10.6064 20.8749L11.366 14.8493H4.00002C3.60851 14.8493 3.25301 14.6208 3.09038 14.2647C2.92774 13.9086 2.98789 13.4903 3.24428 13.1944L12.6458 2.34511C12.9343 2.01217 13.4067 1.90726 13.809 2.08678ZM6.18979 12.8493H12.5C12.787 12.8493 13.0602 12.9726 13.25 13.1879C13.4399 13.4032 13.5281 13.6896 13.4922 13.9744L13.0033 17.8518L18.8102 11.1507H12.5C12.213 11.1507 11.9398 11.0273 11.75 10.8121C11.5602 10.5968 11.472 10.3104 11.5079 10.0256L11.9967 6.14813L6.18979 12.8493Z" fill="#7633FF"/>
</svg>
