<svg xmlns="http://www.w3.org/2000/svg" width="96" height="96"><path d="M48 1a1 1 0 0 1 1 1v1h1a1 1 0 1 1 0 2h-1v4.819l4 10.666V18a1 1 0 1 1 2 0v13.824l2 5.5V35a1 1 0 1 1 2 0v13h4a1 1 0 0 1 1 1v32a1 1 0 0 1-1 1h-1v2h1a1 1 0 0 1 1 1v9a1 1 0 1 1-2 0v-8H34v8a1 1 0 1 1-2 0v-9a1 1 0 0 1 1-1h1v-2h-1a1 1 0 0 1-1-1V49a1 1 0 0 1 1-1h4V35a1 1 0 1 1 2 0v2.324l2-5.5V18a1 1 0 1 1 2 0v2.485L47 9.82V5h-1a1 1 0 1 1 0-2h1V2a1 1 0 0 1 1-1Zm0 11.848L43.443 25H47v-7a1 1 0 1 1 2 0v7h3.557L48 12.848ZM53 27H43v4h10v-4Zm.3 6H42.7l-3.272 9H47v-7a1 1 0 1 1 2 0v7h7.572L53.3 33ZM57 44H39v4h3v-1a1 1 0 1 1 2 0v1h3v-1a1 1 0 1 1 2 0v1h3v-1a1 1 0 1 1 2 0v1h3v-4Zm-9 6H34v30h3v-1a1 1 0 1 1 2 0v1h3v-1a1 1 0 1 1 2 0v1h3v-1a1 1 0 1 1 2 0v1h3v-1a1 1 0 1 1 2 0v1h3v-1a1 1 0 1 1 2 0v1h3V50H48Zm12 32H36v2h24v-2Zm-22 7a1 1 0 0 1 1 1v4a1 1 0 1 1-2 0v-4a1 1 0 0 1 1-1Zm5 0a1 1 0 0 1 1 1v4a1 1 0 1 1-2 0v-4a1 1 0 0 1 1-1Zm5 0a1 1 0 0 1 1 1v4a1 1 0 1 1-2 0v-4a1 1 0 0 1 1-1Zm5 0a1 1 0 0 1 1 1v4a1 1 0 1 1-2 0v-4a1 1 0 0 1 1-1Zm5 0a1 1 0 0 1 1 1v4a1 1 0 1 1-2 0v-4a1 1 0 0 1 1-1Z" fill="#141414" fill-rule="evenodd"/><path d="M38.05 63h2.012a7.96 7.96 0 0 1 1.618-3.906l-1.423-1.423A9.954 9.954 0 0 0 38.049 63Zm1.459-7.48A11.962 11.962 0 0 0 36 64a11.962 11.962 0 0 0 3.515 8.485l.006.007A11.962 11.962 0 0 0 48 76c6.627 0 12-5.373 12-12s-5.373-12-12-12c-3.31 0-6.308 1.34-8.48 3.509l-.005.006-.006.006Zm2.162.737 1.423 1.423A7.96 7.96 0 0 1 47 56.062v-2.013a9.954 9.954 0 0 0-5.329 2.208ZM49 54.05v2.013a7.96 7.96 0 0 1 3.906 1.618l1.423-1.423A9.954 9.954 0 0 0 49 54.049Zm6.743 3.622-1.423 1.423A7.96 7.96 0 0 1 55.938 63h2.013a9.954 9.954 0 0 0-2.208-5.329ZM57.95 65h-2.013a7.96 7.96 0 0 1-1.618 3.906l1.423 1.423A9.954 9.954 0 0 0 57.95 65Zm-3.622 6.743-1.423-1.423A7.96 7.96 0 0 1 49 71.938v2.013a9.954 9.954 0 0 0 5.329-2.208ZM47 73.951v-2.013a7.96 7.96 0 0 1-3.906-1.618l-1.423 1.423A9.954 9.954 0 0 0 47 73.95Zm-6.743-3.622 1.423-1.423A7.96 7.96 0 0 1 40.062 65h-2.013a9.954 9.954 0 0 0 2.208 5.329Zm11.991-2.092a.283.283 0 0 0-.01.011 6 6 0 1 1 0-8.496l.005.005.005.006A5.981 5.981 0 0 1 54 64c0 1.654-.67 3.152-1.752 4.237ZM48 60.05a1 1 0 0 1 1 1V63h2a1 1 0 1 1 0 2h-3a1 1 0 0 1-1-1v-2.95a1 1 0 0 1 1-1Z" fill="#7633FF" fill-rule="evenodd"/></svg>