<svg width="24" height="24" viewBox="0 0 24 24" fill="none" xmlns="http://www.w3.org/2000/svg">
<path fill-rule="evenodd" clip-rule="evenodd" d="M4.83106 8.44503C6.14133 5.80844 8.86041 4 12 4C16.4183 4 20 7.58172 20 12C20 16.4183 16.4183 20 12 20C8.86041 20 6.14133 18.1916 4.83106 15.555C4.58528 15.0604 3.98509 14.8587 3.49051 15.1045C2.99594 15.3503 2.79425 15.9505 3.04003 16.445C4.67516 19.7353 8.07221 22 12 22C17.5229 22 22 17.5228 22 12C22 6.47715 17.5229 2 12 2C8.07221 2 4.67516 4.26468 3.04003 7.55497C2.79425 8.04955 2.99594 8.64973 3.49051 8.89551C3.98509 9.1413 4.58528 8.93961 4.83106 8.44503ZM10.2929 8.29289C10.6834 7.90237 11.3166 7.90237 11.7071 8.29289L14.7064 11.2922L14.7136 11.2995C14.8063 11.3938 14.8764 11.502 14.9241 11.6172C14.9727 11.7343 14.9996 11.8625 15 11.997L15 12L15 12.003C14.9992 12.2746 14.8901 12.5208 14.7136 12.7005L14.7064 12.7078L11.7071 15.7071C11.3166 16.0976 10.6834 16.0976 10.2929 15.7071C9.90237 15.3166 9.90237 14.6834 10.2929 14.2929L11.5858 13H2C1.44772 13 1 12.5523 1 12C1 11.4477 1.44772 11 2 11H11.5858L10.2929 9.70711C9.90237 9.31658 9.90237 8.68342 10.2929 8.29289Z" fill="#7633FF"/>
</svg>
