<svg xmlns="http://www.w3.org/2000/svg" width="48" height="48"><path d="M24.756 3.845a1 1 0 0 0-1.512 0L20.23 7.324c-2.18 2.515-1.34 6.419 1.683 7.814L23 15.64v7.313l-2.987-3.216a7 7 0 0 0-5.13-2.237H10.5a1 1 0 0 0-.814 1.581l3.206 4.488a7 7 0 0 0 5.696 2.931H23v9.183l-2.923-3.597a7 7 0 0 0-5.433-2.586H8.5a1 1 0 0 0-.78 1.627l4.633 5.76a7 7 0 0 0 5.455 2.613H23v5a1 1 0 1 0 2 0v-5h5.192a7 7 0 0 0 5.455-2.613l4.632-5.76A1 1 0 0 0 39.5 29.5h-6.144a7 7 0 0 0-5.433 2.586L25 35.683V26.5h4.412a7 7 0 0 0 5.696-2.931l3.206-4.488A1 1 0 0 0 37.5 17.5h-4.384a7 7 0 0 0-5.13 2.237L25 22.953V15.64l1.087-.502c3.023-1.395 3.864-5.299 1.683-7.814l-3.014-3.479ZM21.74 8.633 24 6.027l2.259 2.606a3 3 0 0 1-1.01 4.69L24 13.898l-1.25-.577a3 3 0 0 1-1.009-4.689ZM33.356 31.5h4.057l-3.324 4.133a5 5 0 0 1-3.897 1.867h-4.091l3.374-4.153a5 5 0 0 1 3.88-1.847Zm-22.769 0 3.324 4.133a5 5 0 0 0 3.897 1.867h4.091l-3.374-4.153a5 5 0 0 0-3.88-1.847h-4.058Zm18.866-10.402a5 5 0 0 1 3.663-1.598h2.44l-2.075 2.906a5 5 0 0 1-4.069 2.094h-3.119l3.16-3.402ZM12.442 19.5l2.076 2.906a5 5 0 0 0 4.069 2.094h3.119l-3.16-3.402a5 5 0 0 0-3.663-1.598h-2.44Z" fill-rule="evenodd" fill="#7633ff"/></svg>