<svg width="48" height="48" viewBox="0 0 48 48" fill="none" xmlns="http://www.w3.org/2000/svg">
<path d="M1.5 41.0992C1.5 38.1169 3.91766 35.6992 6.9 35.6992C9.88234 35.6992 12.3 38.1169 12.3 41.0992C12.3 44.0816 9.88234 46.4992 6.9 46.4992H2.175C1.80221 46.4992 1.5 46.197 1.5 45.8242V41.0992Z" stroke="#7633FF" stroke-width="2"/>
<path d="M30.0988 5.55982L42.39 17.8503M25.2794 8.23397C19.2426 5.63384 11.9711 6.79897 7.03998 11.7301C6.02908 12.741 5.19476 13.8591 4.5 15.0366L11.5848 22.1214M39.7252 22.628C42.3808 28.6842 41.2272 36.0019 36.2691 40.96C35.2582 41.9709 34.1401 42.8052 32.9627 43.5L25.8485 36.3859M20.1934 39.498L8.50202 27.8067C8.50202 27.8067 18.4885 2.962 46.5 1.5C44.9169 29.3897 20.1934 39.498 20.1934 39.498Z" stroke="#141414" stroke-width="2" stroke-miterlimit="10" stroke-linecap="round" stroke-linejoin="round"/>
<ellipse cx="27.7243" cy="20.0996" rx="4.5" ry="4.5" transform="rotate(-45 27.7243 20.0996)" stroke="#7633FF" stroke-width="2" stroke-miterlimit="10" stroke-linecap="round" stroke-linejoin="round"/>
</svg>
