<svg width="48" height="48" viewBox="0 0 48 48" fill="none" xmlns="http://www.w3.org/2000/svg">
<rect width="48" height="48" fill="white"/>
<path d="M14.5 8.50021C14.5 2.48299 30.8825 2.41753 33.0001 7.50005C35.4999 13.5 14.5 14.5 14.5 8.50021Z" stroke="#141414" stroke-width="2" stroke-linecap="round" stroke-linejoin="round"/>
<path d="M9.5 20.5014C9.49991 11.4998 37 10 38.5 20.0008C39.7072 28.0498 9.50008 27.7331 9.5 20.5014Z" stroke="#141414" stroke-width="2" stroke-linecap="round" stroke-linejoin="round"/>
<path fill-rule="evenodd" clip-rule="evenodd" d="M43.9999 36C43.6732 42.5325 38.4121 44.0507 23.456 44.0507C8.49986 44.0507 2.72143 40.0642 4.0609 35.001C7.50003 22.001 44.5 26 43.9999 36Z" stroke="#141414" stroke-width="2" stroke-linecap="round" stroke-linejoin="round"/>
<path d="M15 19.5001C16 17.5 19 16.5 21.5 17.0008" stroke="#7633FF" stroke-width="2" stroke-linecap="round" stroke-linejoin="round"/>
<path d="M10.5 34.0006C11.5 32.0022 14.5 30.4984 17.5 30.9994" stroke="#7633FF" stroke-width="2" stroke-linecap="round" stroke-linejoin="round"/>
</svg>
