<svg width="48" height="48" viewBox="0 0 48 48" fill="none" xmlns="http://www.w3.org/2000/svg">
<path d="M24 44C35.0457 44 44 35.0457 44 24C44 12.9543 35.0457 4 24 4C12.9543 4 4 12.9543 4 24C4 35.0457 12.9543 44 24 44Z" stroke="#7633FF" stroke-width="3" stroke-linecap="round" stroke-linejoin="round"/>
<path d="M24 32C28.4183 32 32 28.4183 32 24C32 19.5817 28.4183 16 24 16C19.5817 16 16 19.5817 16 24C16 28.4183 19.5817 32 24 32Z" stroke="#7633FF" stroke-width="3" stroke-linecap="round" stroke-linejoin="round"/>
<path d="M9.85986 9.85986L18.3399 18.3399" stroke="#7633FF" stroke-width="3" stroke-linecap="round" stroke-linejoin="round"/>
<path d="M29.6602 29.6597L38.1402 38.1397" stroke="#7633FF" stroke-width="3" stroke-linecap="round" stroke-linejoin="round"/>
<path d="M29.6602 18.3399L38.1402 9.85986" stroke="#7633FF" stroke-width="3" stroke-linecap="round" stroke-linejoin="round"/>
<path d="M29.6602 18.3398L36.7202 11.2798" stroke="#7633FF" stroke-width="3" stroke-linecap="round" stroke-linejoin="round"/>
<path d="M9.6001 37.8799L18.0801 29.3999" stroke="#7633FF" stroke-width="3" stroke-linecap="round" stroke-linejoin="round"/>
</svg>
