<svg width="24" height="24" viewBox="0 0 24 24" fill="none" xmlns="http://www.w3.org/2000/svg">
<path fill-rule="evenodd" clip-rule="evenodd" d="M15.7328 4.31955C15.357 3.91484 14.7243 3.89141 14.3195 4.26721C13.9148 4.64301 13.8914 5.27574 14.2672 5.68046L19.2068 11H10C9.44772 11 9 11.4477 9 12C9 12.5523 9.44772 13 10 13H19.2068L14.2672 18.3196C13.8914 18.7243 13.9148 19.357 14.3195 19.7328C14.7243 20.1086 15.357 20.0852 15.7328 19.6805L22.2328 12.6805C22.5891 12.2968 22.5891 11.7032 22.2328 11.3196L15.7328 4.31955ZM4 14C5.10457 14 6 13.1046 6 12C6 10.8954 5.10457 10 4 10C2.89543 10 2 10.8954 2 12C2 13.1046 2.89543 14 4 14Z" fill="#7633FF"/>
</svg>
