<svg width="24" height="24" viewBox="0 0 24 24" fill="none" xmlns="http://www.w3.org/2000/svg">
<path fill-rule="evenodd" clip-rule="evenodd" d="M7.76721 19.6805C8.14301 20.0852 8.77574 20.1086 9.18045 19.7328C9.58516 19.357 9.6086 18.7243 9.23279 18.3196L4.29321 13L13.5 13C14.0523 13 14.5 12.5523 14.5 12C14.5 11.4477 14.0523 11 13.5 11L4.29321 11L9.23279 5.68046C9.6086 5.27575 9.58516 4.64301 9.18045 4.26721C8.77574 3.89141 8.14301 3.91484 7.76721 4.31955L1.26721 11.3196C0.910931 11.7032 0.910931 12.2968 1.26721 12.6805L7.76721 19.6805ZM19.5 10C18.3954 10 17.5 10.8954 17.5 12C17.5 13.1046 18.3954 14 19.5 14C20.6046 14 21.5 13.1046 21.5 12C21.5 10.8954 20.6046 10 19.5 10Z" fill="#7633FF"/>
</svg>
